<mxfile host="app.diagrams.net" agent="Mozilla/5.0 (Windows NT 10.0; Win64; x64) AppleWebKit/537.36 (KHTML, like Gecko) Chrome/129.0.0.0 Safari/537.36" version="24.7.17">
  <diagram name="Page-1" id="bGzbi23QHzYNjb4NM59t">
    <mxGraphModel dx="454" dy="235" grid="1" gridSize="10" guides="1" tooltips="1" connect="1" arrows="1" fold="1" page="1" pageScale="1" pageWidth="850" pageHeight="1100" math="1" shadow="0">
      <root>
        <mxCell id="0" />
        <mxCell id="1" parent="0" />
        <mxCell id="RixFCQQN0fcgcrVFl46Q-26" value="Leveling Table" style="rounded=0;whiteSpace=wrap;html=1;fillColor=#fff2cc;strokeColor=#d6b656;rotation=4;" parent="1" vertex="1">
          <mxGeometry x="539" y="154" width="180" height="20" as="geometry" />
        </mxCell>
        <mxCell id="RixFCQQN0fcgcrVFl46Q-27" value="" style="ellipse;whiteSpace=wrap;html=1;aspect=fixed;" parent="1" vertex="1">
          <mxGeometry x="549" y="170" width="30" height="30" as="geometry" />
        </mxCell>
        <mxCell id="RixFCQQN0fcgcrVFl46Q-28" value="" style="verticalLabelPosition=bottom;verticalAlign=top;html=1;shape=mxgraph.basic.acute_triangle;dx=0.5;" parent="1" vertex="1">
          <mxGeometry x="671.5" y="180" width="40" height="20" as="geometry" />
        </mxCell>
        <mxCell id="RixFCQQN0fcgcrVFl46Q-29" value="" style="endArrow=none;html=1;rounded=0;" parent="1" edge="1">
          <mxGeometry width="50" height="50" relative="1" as="geometry">
            <mxPoint x="520" y="200" as="sourcePoint" />
            <mxPoint x="718" y="200" as="targetPoint" />
          </mxGeometry>
        </mxCell>
        <mxCell id="RixFCQQN0fcgcrVFl46Q-30" value="" style="shape=mxgraph.signs.tech.video_camera;html=1;pointerEvents=1;fillColor=#000000;strokeColor=none;verticalLabelPosition=bottom;verticalAlign=top;align=center;rotation=90;" parent="1" vertex="1">
          <mxGeometry x="601.5" y="17" width="55" height="30" as="geometry" />
        </mxCell>
        <mxCell id="RixFCQQN0fcgcrVFl46Q-31" value="" style="shape=dimension;direction=west;whiteSpace=wrap;html=1;align=center;points=[];verticalAlign=top;spacingTop=-15;labelBackgroundColor=none;rotation=-90;" parent="1" vertex="1">
          <mxGeometry x="556" y="80" width="61" height="21" as="geometry" />
        </mxCell>
        <mxCell id="RixFCQQN0fcgcrVFl46Q-32" value="" style="endArrow=none;html=1;rounded=0;" parent="1" edge="1">
          <mxGeometry width="50" height="50" relative="1" as="geometry">
            <mxPoint x="599" y="121" as="sourcePoint" />
            <mxPoint x="659" y="126" as="targetPoint" />
          </mxGeometry>
        </mxCell>
        <mxCell id="RixFCQQN0fcgcrVFl46Q-33" value="" style="endArrow=none;html=1;rounded=0;" parent="1" edge="1">
          <mxGeometry width="50" height="50" relative="1" as="geometry">
            <mxPoint x="599" y="151" as="sourcePoint" />
            <mxPoint x="599" y="121" as="targetPoint" />
          </mxGeometry>
        </mxCell>
        <mxCell id="RixFCQQN0fcgcrVFl46Q-34" value="" style="endArrow=none;html=1;rounded=0;" parent="1" edge="1">
          <mxGeometry width="50" height="50" relative="1" as="geometry">
            <mxPoint x="599" y="151" as="sourcePoint" />
            <mxPoint x="659" y="155" as="targetPoint" />
          </mxGeometry>
        </mxCell>
        <mxCell id="RixFCQQN0fcgcrVFl46Q-35" value="" style="endArrow=none;html=1;rounded=0;" parent="1" edge="1">
          <mxGeometry width="50" height="50" relative="1" as="geometry">
            <mxPoint x="659" y="155" as="sourcePoint" />
            <mxPoint x="659" y="126" as="targetPoint" />
          </mxGeometry>
        </mxCell>
        <mxCell id="RixFCQQN0fcgcrVFl46Q-36" value="Sample" style="text;html=1;align=center;verticalAlign=middle;whiteSpace=wrap;rounded=0;" parent="1" vertex="1">
          <mxGeometry x="599" y="121" width="60" height="30" as="geometry" />
        </mxCell>
        <mxCell id="Di4nmivKpnjExkYradp7-1" value="" style="shape=dimension;direction=west;whiteSpace=wrap;html=1;align=center;points=[];verticalAlign=top;spacingTop=-15;labelBackgroundColor=none;rotation=90;" vertex="1" parent="1">
          <mxGeometry x="638.63" y="82.13" width="66.75" height="21" as="geometry" />
        </mxCell>
        <mxCell id="Di4nmivKpnjExkYradp7-2" value="$$d_1$$" style="text;html=1;align=center;verticalAlign=middle;whiteSpace=wrap;rounded=0;" vertex="1" parent="1">
          <mxGeometry x="536" y="74.75" width="60" height="30" as="geometry" />
        </mxCell>
        <mxCell id="Di4nmivKpnjExkYradp7-3" value="$$d_2$$" style="text;html=1;align=center;verticalAlign=middle;whiteSpace=wrap;rounded=0;" vertex="1" parent="1">
          <mxGeometry x="661.5" y="74.75" width="60" height="30" as="geometry" />
        </mxCell>
      </root>
    </mxGraphModel>
  </diagram>
</mxfile>
